<svg width="36" height="37" viewBox="0 0 36 37" fill="none" xmlns="http://www.w3.org/2000/svg">
<rect y="0.5" width="36" height="36" rx="18" fill="black"/>
<path d="M12.195 17.7642C11.4069 17.9625 10.7182 18.4418 10.2586 19.112C9.79887 19.7823 9.59974 20.5973 9.6986 21.404C9.79745 22.2107 10.1875 22.9535 10.7954 23.4929C11.4033 24.0323 12.1873 24.3312 13 24.3333H22.1667C22.755 24.3329 23.3367 24.2079 23.8732 23.9665C24.4098 23.7252 24.8892 23.3729 25.2798 22.9329C25.6704 22.4929 25.9634 21.9752 26.1395 21.4138C26.3156 20.8524 26.3708 20.2601 26.3015 19.6758C26.2322 19.0915 26.0399 18.5286 25.7373 18.0239C25.4348 17.5193 25.0288 17.0845 24.546 16.7482C24.0633 16.4118 23.5148 16.1814 22.9367 16.0723C22.3585 15.9632 21.7638 15.9777 21.1917 16.115L20.0833 16.4167" fill="black"/>
<path d="M12.195 17.7642C11.4069 17.9625 10.7182 18.4418 10.2586 19.112C9.79887 19.7823 9.59974 20.5973 9.6986 21.404C9.79745 22.2107 10.1875 22.9535 10.7954 23.4929C11.4033 24.0323 12.1873 24.3312 13 24.3333H22.1667C22.755 24.3329 23.3367 24.2079 23.8732 23.9665C24.4098 23.7252 24.8892 23.3729 25.2798 22.9329C25.6704 22.4929 25.9634 21.9752 26.1395 21.4138C26.3156 20.8524 26.3708 20.2601 26.3015 19.6758C26.2322 19.0915 26.0399 18.5286 25.7373 18.0239C25.4348 17.5193 25.0288 17.0845 24.546 16.7482C24.0633 16.4118 23.5148 16.1814 22.9367 16.0723C22.3585 15.9632 21.7638 15.9777 21.1917 16.115L20.0833 16.4167" stroke="white" stroke-width="2" stroke-linecap="round" stroke-linejoin="round"/>
<path d="M21.1917 16.115C20.9069 14.9871 20.2038 14.0098 19.2251 13.381C18.2464 12.7523 17.0652 12.5192 15.9211 12.7291C14.7769 12.9389 13.7553 13.576 13.0634 14.5111C12.3715 15.4462 12.0611 16.6095 12.195 17.765C12.195 17.765 12.3225 18.5 12.5834 18.9167" fill="black"/>
<path d="M21.1917 16.115C20.9069 14.9871 20.2038 14.0098 19.2251 13.381C18.2464 12.7523 17.0652 12.5192 15.9211 12.7291C14.7769 12.9389 13.7553 13.576 13.0634 14.5111C12.3715 15.4462 12.0611 16.6095 12.195 17.765C12.195 17.765 12.3225 18.5 12.5834 18.9167" stroke="white" stroke-width="2" stroke-linecap="round" stroke-linejoin="round"/>
</svg>
